<svg width="208" height="36" fill="none" xmlns="http://www.w3.org/2000/svg"><g clip-path="url(#clip0)"><path fill-rule="evenodd" clip-rule="evenodd" d="M19.166.574l4.351 10.72a.822.822 0 00.762.548l11.53.875c.762.11 1.197 1.094.545 1.64l-8.812 7.44c-.326.328-.435.656-.326.984l2.72 11.268c.217.766-.653 1.422-1.306.984l-9.79-6.126a.813.813 0 00-.98 0l-9.79 6.126c-.653.438-1.523-.218-1.414-.984L9.484 22.78a1.77 1.77 0 00-.326-.984l-8.812-7.44c-.653-.546-.326-1.53.544-1.64l11.422-.875c.435 0 .653-.219.87-.547L17.535.575c.218-.766 1.305-.766 1.632 0z" fill="#FCC819"/></g><g clip-path="url(#clip1)"><path fill-rule="evenodd" clip-rule="evenodd" d="M61.823.574l4.351 10.72a.823.823 0 00.761.548l11.532.875c.761.11 1.196 1.094.544 1.64l-8.812 7.44c-.326.328-.435.656-.326.984l2.72 11.268c.217.766-.653 1.422-1.306.984l-9.79-6.126a.813.813 0 00-.98 0l-9.79 6.126c-.653.438-1.523-.218-1.414-.984L52.14 22.78a1.77 1.77 0 00-.326-.984l-8.812-7.44c-.653-.546-.326-1.53.544-1.64l11.422-.875c.435 0 .653-.219.87-.547L60.192.575c.217-.766 1.305-.766 1.632 0z" fill="#FCC819"/></g><g clip-path="url(#clip2)"><path fill-rule="evenodd" clip-rule="evenodd" d="M104.48.574l4.351 10.72a.822.822 0 00.762.548l11.531.875c.761.11 1.196 1.094.544 1.64l-8.812 7.44c-.326.328-.435.656-.326.984l2.719 11.268c.218.766-.652 1.422-1.305.984l-9.791-6.126a.812.812 0 00-.979 0l-9.79 6.126c-.653.438-1.523-.218-1.415-.984l2.829-11.268a1.77 1.77 0 00-.326-.984l-8.812-7.44c-.653-.546-.326-1.53.544-1.64l11.422-.875c.435 0 .653-.219.87-.547l4.352-10.72c.217-.766 1.305-.766 1.632 0z" fill="#FCC819"/></g><g clip-path="url(#clip3)"><path fill-rule="evenodd" clip-rule="evenodd" d="M147.137.574l4.351 10.72a.818.818 0 00.762.548l11.531.875c.761.11 1.196 1.094.544 1.64l-8.812 7.44c-.326.328-.435.656-.326.984l2.72 11.268c.217.766-.653 1.422-1.306.984l-9.79-6.126a.815.815 0 00-.98 0l-9.79 6.126c-.653.438-1.523-.218-1.414-.984l2.828-11.268a1.773 1.773 0 00-.326-.984l-8.812-7.44c-.652-.546-.326-1.53.544-1.64l11.422-.875c.436 0 .653-.219.871-.547l4.351-10.72c.218-.766 1.306-.766 1.632 0z" fill="#FCC819"/></g><g clip-path="url(#clip4)"><path fill-rule="evenodd" clip-rule="evenodd" d="M189.794.574l4.351 10.72a.818.818 0 00.762.548l11.531.875c.761.11 1.196 1.094.544 1.64l-8.812 7.44c-.326.328-.435.656-.326.984l2.719 11.268c.218.766-.652 1.422-1.305.984l-9.79-6.126a.815.815 0 00-.98 0l-9.79 6.126c-.653.438-1.523-.218-1.414-.984l2.828-11.268a1.773 1.773 0 00-.326-.984l-8.812-7.44c-.652-.546-.326-1.53.544-1.64l11.422-.875c.436 0 .653-.219.871-.547l4.351-10.72c.218-.766 1.306-.766 1.632 0z" fill="#FCC819"/></g><defs><clipPath id="clip0"><path fill="#fff" d="M0 0h36.67v35.173H0z"/></clipPath><clipPath id="clip1"><path fill="#fff" transform="translate(42.657)" d="M0 0h36.67v35.173H0z"/></clipPath><clipPath id="clip2"><path fill="#fff" transform="translate(85.314)" d="M0 0h36.67v35.173H0z"/></clipPath><clipPath id="clip3"><path fill="#fff" transform="translate(127.971)" d="M0 0h36.67v35.173H0z"/></clipPath><clipPath id="clip4"><path fill="#fff" transform="translate(170.628)" d="M0 0h36.67v35.173H0z"/></clipPath></defs></svg>