<svg xmlns="http://www.w3.org/2000/svg" width="22" height="22" viewBox="0 0 22 22" fill="none"><g clip-path="url(#clip0_175_2)"><path d="M21.1224 6.63685C21.0791 6.43834 20.9835 6.255 20.8456 6.1058C20.7077 5.9566 20.5324 5.84697 20.3379 5.78823C18.7404 4.45173 14.7905 2.66898 11.3098 3.03198C9.79068 3.14492 8.30627 3.54178 6.93351 4.20198C5.96226 4.5166 4.46488 5.85385 3.85476 7.12323C3.80451 7.2376 3.46626 7.90623 3.46626 7.90623C3.46626 7.90623 3.57388 7.85485 3.69801 7.79673C3.73781 7.77806 3.78093 7.76753 3.82485 7.76574C3.86877 7.76395 3.91261 7.77094 3.9538 7.78631C3.99498 7.80168 4.03269 7.82511 4.0647 7.85524C4.09671 7.88536 4.12239 7.92157 4.14023 7.96175C4.15808 8.00192 4.16772 8.04526 4.1686 8.0892C4.16949 8.13315 4.16159 8.17684 4.14537 8.2177C4.12916 8.25856 4.10496 8.29577 4.07418 8.32715C4.0434 8.35854 4.00667 8.38347 3.96613 8.40048C1.87438 9.34173 0.687883 11.3994 0.860008 13.9107C0.860942 13.928 0.867121 13.9445 0.877714 13.958C0.888307 13.9716 0.902807 13.9817 0.919263 13.9868C0.93572 13.9919 0.953345 13.9918 0.969768 13.9866C0.986192 13.9814 1.00063 13.9713 1.01113 13.9576C1.60777 13.207 2.2784 12.5183 3.01288 11.9019C3.04158 12.1578 3.08985 12.4112 3.15726 12.6597C3.3662 13.5233 3.82117 14.3077 4.46702 14.9179C5.11286 15.5281 5.92184 15.9378 6.79588 16.0974C6.34626 16.7975 6.09913 18.2626 7.40301 18.8371C8.51826 19.3876 9.42426 20.3292 9.48538 21.4595C9.48587 21.4707 9.49076 21.4812 9.49898 21.4888C9.5072 21.4964 9.51808 21.5004 9.52926 21.5C10.1878 20.5947 9.23451 17.2812 9.21726 17.1571C9.2173 17.1536 9.21638 17.1502 9.21459 17.1473C9.2128 17.1443 9.21022 17.1418 9.20713 17.1402L8.63038 16.5099L9.53263 15.9699L9.55251 15.941C9.77563 14.693 12.0343 13.448 12.0575 13.4379C12.0653 13.4333 12.0715 13.4263 12.0752 13.4181C12.0789 13.4098 12.0799 13.4005 12.0781 13.3917C12.0762 13.3828 12.0717 13.3747 12.065 13.3685C12.0584 13.3624 12.05 13.3584 12.041 13.3572C8.71738 13.1829 7.79526 14.7222 7.65763 14.9971C6.00576 14.2089 6.07401 11.6596 7.73826 10.9261C9.47563 10.1079 11.8666 10.1244 12.8158 10.1682C15.3305 10.2219 18.062 9.50449 19.6501 8.56174C19.6713 8.48571 19.6744 8.40579 19.6593 8.32833C19.6442 8.25087 19.6113 8.178 19.5631 8.11548C19.1105 7.59235 17.39 7.62273 16.4109 7.76673C16.3239 7.77707 16.2362 7.75293 16.1668 7.69947C16.0974 7.64601 16.0516 7.56749 16.0393 7.48071C16.0271 7.39393 16.0493 7.30581 16.1012 7.2352C16.1531 7.1646 16.2306 7.11714 16.3171 7.10298C16.6119 7.0591 19.2309 6.70698 20.0694 7.67635C20.1812 7.80599 20.2616 7.95975 20.3041 8.1256C20.8096 7.78435 21.2896 7.28973 21.1224 6.63685ZM16.8699 5.61048C16.8699 5.69939 16.8346 5.78466 16.7717 5.84754C16.7088 5.91041 16.6235 5.94573 16.5346 5.94573C16.4457 5.94573 16.3604 5.91041 16.2976 5.84754C16.2347 5.78466 16.1994 5.69939 16.1994 5.61048V5.24148C16.1994 5.15251 16.2347 5.06719 16.2976 5.00429C16.3605 4.94138 16.4459 4.90604 16.5348 4.90604C16.6238 4.90604 16.7091 4.94138 16.772 5.00429C16.8349 5.06719 16.8703 5.15251 16.8703 5.24148L16.8699 5.61048ZM6.02113 3.89673C7.51814 3.09941 9.15182 2.59094 10.8369 2.39785C10.1461 1.64973 8.62063 0.502982 5.74288 0.502982C5.62476 0.528482 5.21038 0.425357 5.29363 0.640607C5.31013 0.660482 6.41376 2.28385 6.02113 3.89673Z" fill="white"/></g><defs><clipPath id="clip0_175_2"><rect width="22" height="22" fill="white"/></clipPath></defs></svg>